<svg id="Layer_1" data-name="Layer 1" xmlns="http://www.w3.org/2000/svg" viewBox="0 0 362.47 348.86"><title>logo</title><path d="M292,219.48l-7.28,1.16c.62,4.17,1.33,8.33,1.86,12.56h0q11.55-7.89,22.89-16c-3.12.32-6.24.72-9.35,1.12C297.36,218.64,294.65,219.05,292,219.48Z" transform="translate(-4.75 -4.71)" fill="none"/><path d="M247.3,42.09h0l0,0,0,0Z" transform="translate(-4.75 -4.71)" fill="none"/><path d="M247.49,41.8h0s0,0,0,0Z" transform="translate(-4.75 -4.71)" fill="none"/><path d="M42.34,138.49c.63-2.36,1.36-4.7,2.16-7,1.61-4.62,3.29-9.22,5.08-13.79L55,104l2.73-6.85,2.67-6.89c-2.46,4.29-4.65,8.7-6.74,13.16s-4,9-5.83,13.59a145.79,145.79,0,0,0-4.7,14.06c-1.25,4.75-2.48,9.66-2.21,14.63A40.12,40.12,0,0,1,42.34,138.49Z" transform="translate(-4.75 -4.71)" fill="#b5b7bb"/><path d="M38.09,176.81c0,1,.08,2.09.14,3.13a156.17,156.17,0,0,0,3.34,24.9,154,154,0,0,0,7.38,24,157.07,157.07,0,0,0,10.88,22.55,219.53,219.53,0,0,1-9.7-23,194,194,0,0,1-6.83-23.92c-.84-4.05-1.49-8.15-2-12.26s-1-8.23-1.29-12.38c-.08-1.16-.14-2.33-.2-3.49l-.9.26Z" transform="translate(-4.75 -4.71)" fill="#b5b7bb"/><path d="M39.44,155.34c3.61-1,7.21-2.09,10.79-3.25s7.45-2.37,11-3.94c-1.84.65-3.72,1.17-5.6,1.72L50,151.39,38.68,154.3l-.45.59c-.22,4.11-.4,8.33-.41,12.5,0,.73,0,1.46,0,2.19l1.63-.61Q39.31,162.18,39.44,155.34Z" transform="translate(-4.75 -4.71)" fill="#b5b7bb"/><path d="M64.17,257.87l15.68-9.74c5.36-3.36,10.71-6.74,16-10.28-5.36,3.36-10.8,6.58-16.22,9.83l-16.34,9.64-.17.65c.75,1.32,1.57,2.59,2.42,3.83l1.05-.49C65.72,260.18,64.92,259,64.17,257.87Z" transform="translate(-4.75 -4.71)" fill="#b5b7bb"/><path d="M70.37,268.31c2.64,3.28,5.49,6.39,8.44,9.39a169.33,169.33,0,0,0,18.91,16.69,163.93,163.93,0,0,0,21.15,13.74,139.21,139.21,0,0,0,23,10.09A189.73,189.73,0,0,1,119.52,307a205.93,205.93,0,0,1-20.69-14A214.71,214.71,0,0,1,80,276.5c-2.87-2.95-5.76-5.92-8.49-9l-1.34.59Z" transform="translate(-4.75 -4.71)" fill="#b5b7bb"/><path d="M68.19,139.79c-.14-2.87-.41-5.72-.59-8.58s-.47-5.7-.61-8.55a103.45,103.45,0,0,1,.25-17,131.65,131.65,0,0,1,3-16.76c.64-2.78,1.36-5.54,2.11-8.3l2.19-8.3A160.87,160.87,0,0,0,68.8,88.55a95.94,95.94,0,0,0-3.46,16.93,80.65,80.65,0,0,0,.18,17.3C66.15,128.51,67.09,134.15,68.19,139.79Z" transform="translate(-4.75 -4.71)" fill="#b5b7bb"/><path d="M70.52,147.21c6.21-1.87,12.36-3.9,18.54-5.88,6.39-2.09,12.76-4.24,19-6.66-6.43,2-12.92,3.74-19.37,5.62l-19.39,5.54-.59.89c.38,2.91.88,5.78,1.43,8.63l1.64-.8Q71.08,150.89,70.52,147.21Z" transform="translate(-4.75 -4.71)" fill="#b5b7bb"/><path d="M73.07,168a216,216,0,0,0,6.74,20.63,178,178,0,0,0,9,19.74,152.88,152.88,0,0,0,11.39,18.42,213.47,213.47,0,0,1-10.39-18.93c-3.15-6.46-5.86-13.11-8.4-19.83s-4.65-13.58-6.49-20.52c-.38-1.4-.74-2.81-1.09-4.22l-1.72.76C72.41,165.39,72.73,166.71,73.07,168Z" transform="translate(-4.75 -4.71)" fill="#b5b7bb"/><path d="M105.36,233.14c5.45-3.41,10.83-6.91,16.23-10.4s11-7.19,16.52-10.87l-16.83,10.38-16.89,10.27-.18.68c1.09,2.15,2.27,4.24,3.49,6.31l1.17-.66C107.64,237,106.46,235.07,105.36,233.14Z" transform="translate(-4.75 -4.71)" fill="#b5b7bb"/><path d="M114.66,250.1a176,176,0,0,0,12.47,15.44,189.51,189.51,0,0,0,14,14.06,178.38,178.38,0,0,0,15.36,12.51c-4.94-4.38-9.77-8.85-14.46-13.46s-9.22-9.37-13.54-14.32-8.52-10-12.44-15.25c-.59-.81-1.19-1.62-1.78-2.44l-1.48.79C113.41,248.32,114,249.22,114.66,250.1Z" transform="translate(-4.75 -4.71)" fill="#b5b7bb"/><path d="M153.3,312.25c1.38-2.78,2.75-5.57,4.29-8.28-1.72,2.59-3.25,5.32-4.75,8-1.27,2.3-2.5,4.61-3.72,6.93l1.36-.78C151.41,316.19,152.34,314.21,153.3,312.25Z" transform="translate(-4.75 -4.71)" fill="#b5b7bb"/><path d="M159.29,324.39a105.48,105.48,0,0,0,22.07,3,89.73,89.73,0,0,0,11.12-.28c-3.69-.33-7.37-.65-11-1.05s-7.3-.9-10.93-1.44q-5.16-.81-10.26-1.85L157.91,324C158.37,324.15,158.83,324.28,159.29,324.39Z" transform="translate(-4.75 -4.71)" fill="#b5b7bb"/><path d="M182.52,312.37c3.61,2.11,7.3,4.12,11,6s7.5,3.74,11.34,5.42q-5.32-3.35-10.72-6.53l-10.7-6.49-.53-.32-1.86,1C181.56,311.78,182,312.09,182.52,312.37Z" transform="translate(-4.75 -4.71)" fill="#b5b7bb"/><path d="M172.87,304.15c-1.74-1.12-3.47-2.28-5.17-3.48a52.54,52.54,0,0,1-4.55-3.43q4.08-6.6,8.49-13c1.52-2.19,3.09-4.36,4.73-6.46a64.31,64.31,0,0,1,5.24-6.06,87,87,0,0,0-10.54,12.12c-3.23,4.27-6.27,8.69-9.18,13.2l.06.7a67.57,67.57,0,0,0,9.91,7.93l.06,0,1.77-1Z" transform="translate(-4.75 -4.71)" fill="#b5b7bb"/><path d="M128.15,69a50.55,50.55,0,0,0,7-3,101.2,101.2,0,0,1-14.52,4.12c-4.92,1.07-9.89,2-14.83,2.76l-.75.81a91.73,91.73,0,0,0,1,13.15q.9,6.47,2.15,12.88c.8,4.27,1.79,8.5,2.75,12.74s2.07,8.44,3.23,12.63q-1-6.43-2.16-12.85l-2.16-12.82c-.69-4.28-1.37-8.55-1.93-12.84a117.28,117.28,0,0,1-1.13-12.11c4.74-.87,9.42-2,14.06-3.22C123.33,70.57,125.76,69.85,128.15,69Z" transform="translate(-4.75 -4.71)" fill="#b5b7bb"/><path d="M119.69,150.78c1.84,5.85,3.93,11.6,6.19,17.28s4.8,11.24,7.42,16.76,5.45,10.93,8.43,16.25q-3.82-8.31-7.46-16.69c-2.44-5.58-4.68-11.24-6.85-16.92s-4.19-11.42-6-17.23c-.92-3.15-1.85-6.31-2.66-9.49l-1.67.92C117.88,144.73,118.74,147.77,119.69,150.78Z" transform="translate(-4.75 -4.71)" fill="#b5b7bb"/><path d="M146,208.32c7.17-4.46,14.33-8.91,21.44-13.48s14.56-9.28,21.6-14.29c-3.59,2.4-7.28,4.64-10.95,6.92l-11.05,6.74-22.18,13.35-.25.8c1.11,2.51,2.32,4.95,3.61,7.36l1.39-.84Q147.76,211.63,146,208.32Z" transform="translate(-4.75 -4.71)" fill="#b5b7bb"/><path d="M156.4,229.42q2.23,3.33,4.59,6.59c3.13,4.34,6.43,8.58,10,12.59a142.93,142.93,0,0,0,11.12,11.57q-5.22-6.09-10.15-12.36c-3.25-4.22-6.44-8.48-9.49-12.83-1.52-2.18-3-4.38-4.45-6.62-1-1.53-2-3.08-3-4.64l-1.56.92C154.39,226.25,155.38,227.84,156.4,229.42Z" transform="translate(-4.75 -4.71)" fill="#b5b7bb"/><path d="M204,283.5l-7.93-8.88-7.44-8.44c4.33-4.46,8.91-8.73,13.67-12.76A101.16,101.16,0,0,1,218,242.09a93.17,93.17,0,0,0-16.29,10.62,190.09,190.09,0,0,0-14.59,12.93l0,1c2.42,3.17,5,6.17,7.62,9.21s5.28,6,8,8.86l1.51,1.56,1.46-.9Z" transform="translate(-4.75 -4.71)" fill="#b5b7bb"/><path d="M220.4,300.77c-2.58-2.5-5.05-5.08-7.52-7.66l-1,.6A93,93,0,0,0,220.4,300.77Z" transform="translate(-4.75 -4.71)" fill="#b5b7bb"/><path d="M152.76,83.11c-3.12-6.6-6.28-13.18-9.53-19.71a162.42,162.42,0,0,0,13-10.69c2.15-2,4.29-4,6.25-6.22a30.58,30.58,0,0,0,5.09-7.18,34.87,34.87,0,0,1-5.69,6.61q-3.17,3-6.53,5.79c-4.5,3.68-9.13,7.24-13.83,10.66l-.29,1.16c3.27,6.81,6.67,13.55,10.1,20.28,3.38,6.49,6.76,13,10.36,19.37l.06,0C158.89,96.39,155.82,89.75,152.76,83.11Z" transform="translate(-4.75 -4.71)" fill="#b5b7bb"/><path d="M171,126c2.31,4.91,4.65,9.81,7.11,14.65s4.84,9.71,7.43,14.49,5.15,9.57,8,14.2l-6.84-14.77c-2.26-4.94-4.63-9.82-7-14.71s-4.72-9.76-7.14-14.62c-2-4.21-4.18-8.38-6.33-12.55l-1.07.68C167.09,117.63,169,121.86,171,126Z" transform="translate(-4.75 -4.71)" fill="#b5b7bb"/><path d="M197.72,176.81c9-5.66,18.05-11.29,27-17C233.87,153.92,243,148.1,252,142q-13.8,8.63-27.73,17L196.49,176l-.26.86c1,2.3,2,4.58,3,6.85l1.41-.91C199.7,180.79,198.73,178.79,197.72,176.81Z" transform="translate(-4.75 -4.71)" fill="#b5b7bb"/><path d="M208.72,204.07c2.14,4.51,4.32,9,6.58,13.46s4.52,8.91,6.9,13.31q-2.77-7-5.79-13.83c-1.95-4.6-4-9.15-6.1-13.68-1.67-3.69-3.36-7.36-5.1-11l-1.54,1Q206.15,198.73,208.72,204.07Z" transform="translate(-4.75 -4.71)" fill="#b5b7bb"/><path d="M236.81,259.54l-4.76-11-4.54-10.27c7.46-3.64,15-7.13,22.79-10.16,4-1.55,8-3,12.13-4.31A69.92,69.92,0,0,1,275,220.93a64.09,64.09,0,0,0-12.72,2.23c-4.17,1.1-8.29,2.42-12.34,3.9a258.2,258.2,0,0,0-23.86,10l-.4,1.07,4.65,11.1c1.61,3.67,3.29,7.32,4.95,11,.77,1.71,1.59,3.41,2.42,5.1l1.28-.81Z" transform="translate(-4.75 -4.71)" fill="#b5b7bb"/><path d="M246.46,281.55c-1.15-2.39-2.21-4.81-3.26-7.24l-.71.46C243.73,277.08,245,279.35,246.46,281.55Z" transform="translate(-4.75 -4.71)" fill="#b5b7bb"/><path d="M181.43,42.71l9.87,9.17q5,4.54,10,9c3.3,3,6.81,5.87,10,9a58.27,58.27,0,0,0-4.47-5.07c-1.52-1.65-3.12-3.24-4.7-4.83q-4.74-4.8-9.63-9.45c-3.26-3.09-6.53-6.17-9.86-9.2s-6.39-5.82-9.66-8.65c1.14-2.34,2.28-4.68,3.31-7.07a51.57,51.57,0,0,0,2.86-7.85,40.1,40.1,0,0,1-1.71,3.78c-.62,1.25-1.27,2.47-1.93,3.69-1.31,2.44-2.62,4.9-4,7.3l.15.83C174.89,36.54,178.15,39.63,181.43,42.71Z" transform="translate(-4.75 -4.71)" fill="#b5b7bb"/><path d="M222.19,82c1.81,2.19,3.59,4.4,5.32,6.64,3.46,4.49,6.82,9.07,10.12,13.67s6.4,9.37,9.5,14.12,6,9.64,8.89,14.55a167.64,167.64,0,0,0-7.8-15.21c-2.81-5-5.9-9.77-9.13-14.48s-6.61-9.3-10.2-13.74c-1.78-2.23-3.6-4.41-5.46-6.58-1.28-1.44-2.59-2.86-3.91-4.27l-1.08.78Q220.35,79.69,222.19,82Z" transform="translate(-4.75 -4.71)" fill="#b5b7bb"/><path d="M242.32,48c-.65.83-1.34,1.63-2,2.43l.36-.26C241.21,49.44,241.78,48.72,242.32,48Z" transform="translate(-4.75 -4.71)" fill="#b5b7bb"/><path d="M260.76,138.52q8.64-5.4,17.17-11l8.71-5.77c2.89-2,5.77-3.91,8.51-6.06-2.81,2.05-5.78,3.88-8.7,5.76L277.58,127l-17.85,10.85-.2.73c.54,1.13,1,2.28,1.55,3.44l1.06-.76C261.69,140.34,261.23,139.42,260.76,138.52Z" transform="translate(-4.75 -4.71)" fill="#b5b7bb"/><path d="M266.9,156.49c2.24,6.06,4.25,12.21,6.16,18.38A323.5,323.5,0,0,1,282,212.65a191.56,191.56,0,0,0-7.2-38.29c-1.76-6.26-3.89-12.42-6.25-18.49-.79-2.06-1.63-4.09-2.49-6.11l-1.35,1Q265.83,153.61,266.9,156.49Z" transform="translate(-4.75 -4.71)" fill="#b5b7bb"/><path d="M286.54,233.2c-.53-4.23-1.24-8.39-1.86-12.56l7.28-1.16c2.69-.43,5.4-.84,8.12-1.2,3.11-.4,6.23-.8,9.35-1.12l.89-.63c-.72,0-1.43,0-2.15.06-2.75.09-5.49.29-8.22.54s-5.47.53-8.2.84-5.44.72-8.17,1.12l-.71,1c.58,4.48,1.28,8.93,1.78,13.37,0,.33.07.67.11,1l1.78-1.23Z" transform="translate(-4.75 -4.71)" fill="#b5b7bb"/><path d="M285.75,246.81l.55,13.49.46,13.49.24.26,7.92.61c2.63.21,5.28.41,7.9.73-5.15-.78-10.35-1.3-15.54-1.83q.27-6.63.31-13.29c.07-4.5.05-9-.13-13.53,0-.78-.06-1.56-.09-2.35-.56.41-1.12.8-1.68,1.2Z" transform="translate(-4.75 -4.71)" fill="#b5b7bb"/><path d="M233.59,32.7c2.65,1.49,5.41,2.81,7.94,4.54a37.83,37.83,0,0,0-7.17-5.82c-2.56-1.71-5.22-3.24-7.91-4.72a116.91,116.91,0,0,0-16.76-7.57c5.15,3.39,10.51,6.31,15.85,9.24Z" transform="translate(-4.75 -4.71)" fill="#b5b7bb"/><path d="M247.3,42.12l0,0C247.25,42.17,247.27,42.16,247.3,42.12Z" transform="translate(-4.75 -4.71)" fill="#b5b7bb"/><path d="M249.52,43.26l-1.05-.76-.52-.38-.27-.19,0,0q2.35-2.56,4.51-5.28c.74-.94,1.46-1.89,2.14-2.88A13.21,13.21,0,0,0,256,30.62a13.92,13.92,0,0,1-1.79,3.08c-.7,1-1.44,1.89-2.21,2.8q-2.29,2.73-4.76,5.31h.07c-.08.12-.16.29-.1.26l0,0,0,0h.06l0,0h0l.12.11.25.21.49.42,1,.84,0,0,.48-.36Zm-2-1.46v0s0,0,0,0Z" transform="translate(-4.75 -4.71)" fill="#b5b7bb"/><path d="M262,56.31c4.74,5,9.16,10.23,13.4,15.62s8.24,11,12.12,16.64,7.45,11.55,11,17.48a169.38,169.38,0,0,0-9.8-18.25,193.66,193.66,0,0,0-11.83-17A187.74,187.74,0,0,0,263.18,55.2q-3.63-3.57-7.47-6.93l-.84.72C257.33,51.36,259.72,53.81,262,56.31Z" transform="translate(-4.75 -4.71)" fill="#b5b7bb"/><path d="M304.08,110.15l-2.4,1.43-.13.55,2.24-1.75Z" transform="translate(-4.75 -4.71)" fill="#b5b7bb"/><path d="M334.42,208.91l5,.07a31.23,31.23,0,0,1,4.94.34,29.07,29.07,0,0,0-4.94-.42l-5-.16-1.5,0-.23.2Z" transform="translate(-4.75 -4.71)" fill="#b5b7bb"/><path d="M323.5,183.7a221.14,221.14,0,0,0-3.86-24.78,188.08,188.08,0,0,0-6.75-24.18,157.09,157.09,0,0,0-7-16.93l-1.23,1.06a169.19,169.19,0,0,1,6.56,16.45q2,5.9,3.62,11.91c1.14,4,2.15,8,3.06,12.07,1.82,8.11,3.15,16.31,4.25,24.56q.81,6.18,1.31,12.4c.3,3.33.53,6.67.71,10,.16-.11.31-.23.46-.35C324.59,198.5,324.24,191.09,323.5,183.7Z" transform="translate(-4.75 -4.71)" fill="#b5b7bb"/><path d="M322.9,222.32c-.28,2.28-.6,4.55-1,6.82-.76,4.53-1.58,9-2.56,13.53s-2,9-3.13,13.42c-.55,2.23-1.15,4.46-1.76,6.68l-1.79,6.69c1-2.1,1.82-4.26,2.68-6.4s1.56-4.36,2.29-6.56a135.54,135.54,0,0,0,3.58-13.43,122.61,122.61,0,0,0,2.14-13.74,80.62,80.62,0,0,0,.34-12.81l-.19.16C323.35,218.57,323.16,220.45,322.9,222.32Z" transform="translate(-4.75 -4.71)" fill="#b5b7bb"/><path d="M274.44,281.71a72.08,72.08,0,0,0-46.63,22.46A72.92,72.92,0,0,0,213.33,326a73.51,73.51,0,0,1,7-11,81.89,81.89,0,0,1,8.53-9.77,77.41,77.41,0,0,1,45.75-22,106.59,106.59,0,0,1,26,.29,95.71,95.71,0,0,0-13-1.87A89,89,0,0,0,274.44,281.71Z" transform="translate(-4.75 -4.71)" fill="#b5b7bb"/><path d="M81.06,65.3l.33.15.62.21c.42.11.83.2,1.24.28.83.15,1.66.25,2.48.33,1.65.16,3.3.25,5,.31,3.3.12,6.6.08,9.9,0-3.3-.09-6.59-.22-9.87-.44-1.65-.12-3.28-.27-4.9-.5-.82-.11-1.62-.24-2.42-.41-.39-.09-.78-.19-1.15-.31a3.16,3.16,0,0,1-.54-.2l-.07,0A111.82,111.82,0,0,1,100,48.21a156.07,156.07,0,0,1,21.53-13,175.24,175.24,0,0,1,23.3-9.59,216.07,216.07,0,0,1,24.45-6.46,154.49,154.49,0,0,0-24.85,5.16,147.62,147.62,0,0,0-23.71,9.25A134,134,0,0,0,99.05,46.86a106.19,106.19,0,0,0-9.74,8.23,77.08,77.08,0,0,0-8.61,9.43l0,.4C80.88,65.25,80.94,65.19,81.06,65.3Z" transform="translate(-4.75 -4.71)" fill="#b5b7bb"/><path d="M367.2,164.67a7.37,7.37,0,0,0-3.64-6.19,15.58,15.58,0,0,0-6.33-2,51.36,51.36,0,0,0-12.59.44A55.22,55.22,0,0,1,357,158.07a14,14,0,0,1,5.3,2.28,4.84,4.84,0,0,1,2,4.35,13.19,13.19,0,0,1-1.74,5.19,35.45,35.45,0,0,1-3.29,4.92,89,89,0,0,1-8.23,9,240.05,240.05,0,0,1-18.64,16.13q-3.84,3-7.73,6c-.15.12-.3.24-.46.35-3.81,2.92-7.65,5.81-11.54,8.63l-2.3,1.64-.89.63q-11.35,8.13-22.89,16l-1.78,1.23c-4.31,2.94-8.64,5.86-13,8.72Q255.49,254,239,264.52l-1.28.81-7.7,4.85q-12.06,7.71-24.28,15.16l-1.46.9q-8.3,5.07-16.61,10.08c-4.63,2.82-9.28,5.59-13.94,8.35l-1.77,1q-10.68,6.29-21.44,12.45l-1.36.78-4.42,2.54c-7.2,4.1-14.49,8-21.78,11.95s-14.67,7.65-22.18,11a99.58,99.58,0,0,1-11.34,4.48A20.15,20.15,0,0,1,83.89,350a3.34,3.34,0,0,1-.94-.13c-.21-.08-.16,0-.21-.06s0-1.06.3-1.86a25.83,25.83,0,0,1,3-5.07c1.2-1.66,2.51-3.25,3.85-4.84,2.65-3.18,5.5-6.22,8.34-9.27q-4.89,3.9-9.5,8.17c-1.53,1.45-3,2.93-4.45,4.51a27.6,27.6,0,0,0-3.92,5.26,8.42,8.42,0,0,0-.71,1.74,4.19,4.19,0,0,0,0,2.4A3.53,3.53,0,0,0,81.52,353a6.54,6.54,0,0,0,2.09.56,23.29,23.29,0,0,0,6.81-.63,104.37,104.37,0,0,0,12.25-3.62c15.85-5.81,31-13,45.93-20.49q4.68-2.32,9.31-4.75l2.35-1.22c7-3.67,13.92-7.46,20.82-11.3l1.86-1,9.77-5.48q9.64-5.53,19.17-11.27l1-.6q11.44-6.89,22.77-13.94c2.29-1.46,4.56-2.93,6.84-4.4l.71-.46c11.52-7.43,22.95-15,34.22-22.84,2.77-1.94,5.52-3.91,8.27-5.88.56-.4,1.12-.79,1.68-1.2q5.22-3.75,10.4-7.58c3.36-2.49,6.72-5,10-7.54s6.59-5.17,9.85-7.8c2-1.58,3.92-3.18,5.86-4.79l.19-.16q4.55-3.74,9-7.61l.23-.2a251.5,251.5,0,0,0,21.86-21.35,91.86,91.86,0,0,0,7.8-10.17,37.56,37.56,0,0,0,3.15-5.76A15.37,15.37,0,0,0,367.2,164.67Z" transform="translate(-4.75 -4.71)" fill="#fff"/><path d="M18.68,180.07a46.84,46.84,0,0,0,7-.54,101.85,101.85,0,0,0,12.44-2.72l.8-.22.9-.26A241.54,241.54,0,0,0,64,167.58c2.72-1.14,5.42-2.32,8.12-3.51l1.72-.76c14.78-6.6,29.18-13.9,43.33-21.65l1.67-.92c13-7.17,25.83-14.71,38.52-22.4q3.94-2.46,7.87-4.94l1.07-.68q17.82-11.27,35.23-23.18,8.53-6,16.94-12.09l1.08-.78c1.14-.83,2.29-1.65,3.43-2.49q10.65-7.79,20.93-16.1c3.69-3,7.37-6,11-9.09l.84-.72c2.81-2.4,5.6-4.84,8.32-7.35,3.25-3,6.45-6.08,9.55-9.29a99.88,99.88,0,0,0,8.82-10.22,33.78,33.78,0,0,0,3.63-6.1,12.67,12.67,0,0,0,1.05-3.89A6.56,6.56,0,0,0,286.83,9a5.24,5.24,0,0,0-1.43-2.27,7.61,7.61,0,0,0-4-1.79,16.91,16.91,0,0,0-3.65-.19,39.89,39.89,0,0,0-6.76.93A154.68,154.68,0,0,0,245.91,14c4.25-1.1,8.48-2.21,12.75-3.13a116.38,116.38,0,0,1,12.8-2.26,43.41,43.41,0,0,1,6.3-.28,14.32,14.32,0,0,1,2.87.38,3.75,3.75,0,0,1,1.87,1,1.55,1.55,0,0,1,.21,1.34,8.25,8.25,0,0,1-.91,2.33,29.36,29.36,0,0,1-3.51,4.89c-5.48,6.35-12.13,12-18.81,17.45q-4.86,3.91-9.81,7.74l-.48.36Q245,47,240.65,50.16l-.36.26-1.46,1.08c-14.1,10.19-28.38,20.17-43,29.69q-16.91,11.22-34.12,22l-.06,0q-5,3.07-9.91,6.1-22.19,13.81-45,26.58-17.25,9.82-35,18.69l-1.64.8q-4.77,2.37-9.56,4.67c-7,3.28-14,6.29-21.14,8.95l-1.63.61-1.08.4a97.48,97.48,0,0,1-12.18,3.57,44.86,44.86,0,0,1-6.07.88A17.13,17.13,0,0,1,13,174a4.74,4.74,0,0,1-3.34-2.64,10,10,0,0,1-.34-5.28,46.48,46.48,0,0,1,4.13-11.85c1.86-3.88,4-7.68,6.26-11.41s4.63-7.41,7-11.07a156.17,156.17,0,0,0-15.88,21.09,46,46,0,0,0-5.57,12.44,14.22,14.22,0,0,0,0,7.69,9.07,9.07,0,0,0,2.38,3.73,11,11,0,0,0,3.62,2.21A21,21,0,0,0,18.68,180.07Z" transform="translate(-4.75 -4.71)" fill="#a6a8ac"/><path d="M329.86,94.76A68.33,68.33,0,0,0,339,82.35a17.72,17.72,0,0,0,1.55-3.91,8.93,8.93,0,0,0,.26-2.37,5.58,5.58,0,0,0-.76-2.64,5.29,5.29,0,0,0-2-1.88,8,8,0,0,0-2.2-.8,16.6,16.6,0,0,0-4.11-.26,65.91,65.91,0,0,0-14.84,3.13c-4.77,1.52-9.44,3.21-14.05,5.08,4.8-1.28,9.6-2.54,14.45-3.52a64.41,64.41,0,0,1,14.46-1.74,13.85,13.85,0,0,1,3.28.49A2.92,2.92,0,0,1,337,75.2a3.2,3.2,0,0,1-.11,2.22,13.66,13.66,0,0,1-1.43,2.9,64.38,64.38,0,0,1-9.35,10.83,282,282,0,0,1-22,19l-.29.23-2.24,1.75c-7,5.5-14.11,10.92-21.33,16.18q-9,6.52-18.08,12.94l-1.06.76c-9.74,6.88-19.55,13.68-29.48,20.3q-15.36,10.4-30.93,20.48l-1.41.91q-8.64,5.6-17.34,11.08-16,10.28-32.28,20.1l-1.39.84q-8.43,5.1-16.9,10.11-11.16,6.66-22.48,13l-1.17.66q-13.92,7.83-28,15.24-6.51,3.38-13.11,6.56l-1.05.49q-6.19,3-12.44,5.73c-4.48,2-9,3.82-13.6,5.45a89.09,89.09,0,0,1-13.87,3.87,28.32,28.32,0,0,1-6.79.52c-2.17-.15-4.09-.77-5-2.06s-1.23-3.47-.89-5.69a32,32,0,0,1,1.93-6.78,93.15,93.15,0,0,1,6.64-13.1c2.5-4.27,5.23-8.41,8-12.55C23,244.77,16.75,252.57,12.1,261.65A32,32,0,0,0,9.36,269a15.54,15.54,0,0,0-.4,4.2,9.09,9.09,0,0,0,1.41,4.48,8.81,8.81,0,0,0,3.68,3.12A15.05,15.05,0,0,0,18.26,282a32.77,32.77,0,0,0,8,0,89.47,89.47,0,0,0,15-3.22c4.86-1.42,9.63-3.06,14.34-4.81,4.91-1.82,9.74-3.81,14.52-5.89l1.34-.59q5.92-2.6,11.78-5.32,14.94-7,29.49-14.73l1.48-.79c13.24-7,26.26-14.38,39.14-22l1.56-.92q16.46-9.76,32.64-20,8.05-5.16,16.06-10.42l1.54-1q16.18-10.65,32.1-21.72,12.19-8.61,24.22-17.49l3.16-2.35,1.35-1q9.73-7.27,19.22-14.86c6.54-5.24,13-10.55,19.39-16l1.23-1.06A297.67,297.67,0,0,0,329.86,94.76Z" transform="translate(-4.75 -4.71)" fill="#a6a8ac"/></svg>